<?xml version="1.0" encoding="UTF-8"?>
<svg width="14px" height="12px" viewBox="0 0 14 12" version="1.1" xmlns="http://www.w3.org/2000/svg" xmlns:xlink="http://www.w3.org/1999/xlink">
    <!-- Generator: Sketch 48.2 (47327) - http://www.bohemiancoding.com/sketch -->
    <title>隐藏密码</title>
    <desc>Created with Sketch.</desc>
    <defs>
        <polygon id="path-1" points="0.00137931034 0.019463138 13.9943448 0.019463138 13.9943448 11.9999546 0.00137931034 11.9999546"></polygon>
    </defs>
    <g id="__wesketch_export" stroke="none" stroke-width="1" fill="none" fill-rule="evenodd">
        <g id="隐藏密码">
            <g>
                <mask id="mask-2" fill="white">
                    <use xlink:href="#path-1"></use>
                </mask>
                <g id="Clip-2"></g>
                <path d="M6.90131034,3.80277505 L8.88227586,5.75752741 L8.88227586,5.63142533 C8.88227586,4.55941021 8.05154023,3.73968998 6.96514943,3.73968998 C6.96524138,3.80277505 6.96524138,3.80277505 6.90131034,3.80277505 Z M4.15356322,4.30722873 L5.11206897,5.25307372 L5.11206897,5.69444234 C5.11206897,6.76643478 5.9428046,7.58608696 7.02910345,7.58608696 C7.15687356,7.58608696 7.28475862,7.58608696 7.4763908,7.52309263 L8.43489655,8.46891493 C7.9876092,8.72109641 7.54032184,8.84728922 7.02910345,8.84728922 C5.23986207,8.84728922 3.83404598,7.46000756 3.83404598,5.69444234 C3.83404598,5.18996597 3.96183908,4.74859735 4.15356322,4.30722873 Z M0.639011494,0.839183365 L2.36432184,2.54166352 C1.27802299,3.36140643 0.447287356,4.43333081 0,5.69444234 C1.08629885,8.46891493 3.83404598,10.4235766 7.02910345,10.4235766 C7.9876092,10.4235766 8.9462069,10.2343894 9.84078161,9.91921361 L11.9495402,11.9999546 L12.7801839,11.1803251 L1.46974713,0.019463138 L0.639011494,0.839183365 Z M7.02910345,2.54166352 C8.81834483,2.54166352 10.2241379,3.92894518 10.2241379,5.69444234 C10.2241379,6.07279395 10.1602989,6.51416257 9.96857471,6.8294518 L11.8216552,8.65810208 C12.7801839,7.83835917 13.5470575,6.8294518 13.9943448,5.69444234 C12.908046,2.92003781 10.1602989,0.965285444 6.96514943,0.965285444 C6.07057471,0.965285444 5.23986207,1.15447259 4.40912644,1.40665406 L5.81501149,2.79384499 C6.19836782,2.60474858 6.64574713,2.54166352 7.02910345,2.54166352 Z" id="Fill-1" fill="#666666" mask="url(#mask-2)"></path>
            </g>
        </g>
    </g>
</svg>