<?xml version="1.0" encoding="UTF-8"?>
<svg width="15px" height="12px" viewBox="0 0 15 12" version="1.1" xmlns="http://www.w3.org/2000/svg" xmlns:xlink="http://www.w3.org/1999/xlink">
    <!-- Generator: Sketch 48.2 (47327) - http://www.bohemiancoding.com/sketch -->
    <title>部门</title>
    <desc>Created with Sketch.</desc>
    <defs>
        <polygon id="path-1" points="0.00114795918 0.0133524852 14.9866822 0.0133524852 14.9866822 11.9814255 0.00114795918 11.9814255"></polygon>
    </defs>
    <g id="__wesketch_export" stroke="none" stroke-width="1" fill="none" fill-rule="evenodd">
        <g id="部门">
            <g>
                <mask id="mask-2" fill="white">
                    <use xlink:href="#path-1"></use>
                </mask>
                <g id="Clip-2"></g>
                <path d="M8.16799745,11.6196594 C8.03944515,11.9183963 7.68587372,12.0610588 7.3781824,11.9361734 L0.372570153,9.11119505 C0.0649553571,8.9863839 -0.0819834184,8.64310217 0.0465688776,8.34436533 C0.175178571,8.04568421 0.528692602,7.90304025 0.836383929,8.02783282 L7.8404273,10.8543529 C8.14961097,10.9761734 8.29654974,11.3209969 8.16799745,11.6196594 Z" id="Fill-1" fill="#999999" mask="url(#mask-2)"></path>
                <path d="M7.05830357,11.6166873 C7.18685587,11.9154241 7.5404273,12.0580681 7.84811862,11.9332012 L14.6133865,9.20334985 C14.9210778,9.0784644 15.0680166,8.73523839 14.9394643,8.43650155 C14.8108355,8.13783901 14.457264,7.99512074 14.1496492,8.11998762 L7.38430485,10.8499133 C7.07669005,10.9747245 6.92975128,11.3180248 7.05830357,11.6166873 Z M8.16799745,9.09334365 C8.03944515,9.3920805 7.68587372,9.53474303 7.3781824,9.40985759 L0.372570153,6.58487926 C0.0649553571,6.46006811 -0.0819834184,6.11678638 0.0465688776,5.81804954 C0.175178571,5.51936842 0.528692602,5.37672446 0.836383929,5.50151703 L7.8404273,8.32803715 C8.14961097,8.44985759 8.29654974,8.79468111 8.16799745,9.09334365 Z" id="Fill-3" fill="#999999" mask="url(#mask-2)"></path>
                <path d="M7.05830357,9.09037152 C7.18685587,9.38910836 7.5404273,9.53175232 7.84811862,9.40688545 L14.6133865,6.67703406 C14.9210778,6.55214861 15.0680166,6.2089226 14.9394643,5.91018576 C14.8108355,5.61152322 14.457264,5.46880495 14.1496492,5.59367183 L7.38430485,8.32359752 C7.07669005,8.44840867 6.92975128,8.79170898 7.05830357,9.09037152 Z M14.9501594,3.23229102 C14.8950765,3.08071207 14.7772003,2.95140557 14.6118941,2.88458824 L7.60777423,0.0580681115 C7.52975128,0.026879257 7.44857143,0.012 7.36905612,0.0134489164 C7.28946429,0.012 7.20830357,0.026879257 7.13028061,0.0580681115 L0.377200255,2.78204954 C0.198118622,2.8533808 0.0741390306,2.99901548 0.026690051,3.1669226 C0.0251020408,3.16989474 0.0251020408,3.17431579 0.0236096939,3.17728793 L0.0236096939,3.17881115 C-0.0574744898,3.45969659 0.0894642857,3.76279876 0.374139031,3.87722601 L7.3781824,6.70372755 C7.53430485,6.76619814 7.70269133,6.76170279 7.84654974,6.70227864 L7.84811862,6.70227864 L14.6133865,3.97235294 C14.9133865,3.85198142 15.0603827,3.52508359 14.9501594,3.23229102 Z" id="Fill-4" fill="#999999" mask="url(#mask-2)"></path>
            </g>
        </g>
    </g>
</svg>