<?xml version="1.0" encoding="UTF-8"?>
<svg width="17px" height="18px" viewBox="0 0 17 18" version="1.1" xmlns="http://www.w3.org/2000/svg" xmlns:xlink="http://www.w3.org/1999/xlink">
    <!-- Generator: Sketch 48.2 (47327) - http://www.bohemiancoding.com/sketch -->
    <title>gongsi00</title>
    <desc>Created with Sketch.</desc>
    <defs></defs>
    <g id="__wesketch_export" stroke="none" stroke-width="1" fill="none" fill-rule="evenodd">
        <g id="gongsi00" fill="#999999">
            <path d="M7.84177238,17.999519 L7.84177238,0.0424303797 L16.9906358,0.0424303797 L16.9906358,18 L7.84177238,18 L7.84177238,17.999519 Z M15.6835706,3.89005063 L9.14883763,3.89005063 L9.14883763,5.17278481 L15.6840607,5.17278481 L15.6840607,3.89005063 L15.6835706,3.89005063 Z M15.6835706,7.73825316 L9.14883763,7.73825316 L9.14883763,9.02098734 L15.6840607,9.02098734 L15.6840607,7.73825316 L15.6835706,7.73825316 Z M15.6835706,11.5864304 L9.14883763,11.5864304 L9.14883763,12.8691646 L15.6840607,12.8691646 L15.6840607,11.5864304 L15.6835706,11.5864304 Z M0,17.999519 L6.53522307,17.999519 L6.53522307,6.45551899 L0,6.45551899 L0,17.999519 Z M1.30654932,14.1517975 L5.22764188,14.1517975 L5.22764188,12.8691646 L1.30654932,12.8691646 L1.30654932,14.1517975 Z M1.30654932,10.3036962 L5.22764188,10.3036962 L5.22764188,9.02098734 L1.30654932,9.02098734 L1.30654932,10.3036962 Z"></path>
        </g>
    </g>
</svg>