<?xml version="1.0" encoding="UTF-8"?>
<svg width="14px" height="15px" viewBox="0 0 14 15" version="1.1" xmlns="http://www.w3.org/2000/svg" xmlns:xlink="http://www.w3.org/1999/xlink">
    <!-- Generator: Sketch 48.2 (47327) - http://www.bohemiancoding.com/sketch -->
    <title>黑名单</title>
    <desc>Created with Sketch.</desc>
    <defs></defs>
    <g id="__wesketch_export" stroke="none" stroke-width="1" fill="none" fill-rule="evenodd">
        <g id="黑名单" fill="#4C8AFF">
            <g>
                <path d="M10.7100534,8.18173243 C8.89687532,8.18173243 7.427,9.70805179 7.427,11.590857 C7.427,13.4736621 8.89687532,14.9999815 10.7100534,14.9999815 C12.5232316,14.9999815 13.9931069,13.4736621 13.9931069,11.590857 C13.9931069,9.70805179 12.5232316,8.18173243 10.7100534,8.18173243 Z M8.26233333,11.590857 C8.26233333,10.9167818 8.52026463,10.2703021 8.97925445,9.79359433 C9.43833333,9.31697904 10.0609059,9.04914303 10.7100534,9.04914303 C11.2489288,9.05080764 11.7719338,9.2387238 12.1965649,9.5832799 L8.64626463,12.9450925 C8.3971145,12.5407213 8.26422137,12.0709494 8.26324173,11.590857 L8.26233333,11.590857 Z M10.7100534,14.1325709 C10.1710356,14.1306289 9.64803053,13.9424168 9.22354198,13.5974908 L12.7747506,10.2357707 C13.0145852,10.6296547 13.1577735,11.0918434 13.1577735,11.590857 C13.1577735,12.2649322 12.8998422,12.9114858 12.4408524,13.3881196 C11.9817735,13.8648089 11.359201,14.1325709 10.7100534,14.1325709 Z" id="Fill-1"></path>
                <path d="M7.99968193,8.76131319 C8.03892112,8.77265105 8.07816031,8.78594945 8.12192366,8.78594945 C8.2806972,8.87459926 8.47566412,8.85242293 8.61217303,8.73009248 C8.74861069,8.6078545 8.79835878,8.41076449 8.73712214,8.23468557 C8.67590331,8.05862515 8.51643511,7.94004932 8.3362341,7.93651665 L8.3417201,7.92416153 C8.32620611,7.91844636 8.31069211,7.91469174 8.29608651,7.90805179 L8.28787532,7.90616523 C8.18189567,7.8655672 8.07482952,7.82800247 7.96683715,7.79347102 C9.18889822,7.07097411 10.0224326,5.72151048 10.0224326,4.15616523 C9.98923155,1.86046239 8.18761323,0.0174784217 5.97652163,0.0174784217 C3.76543003,0.0174784217 1.9638117,1.86046239 1.9306285,4.15616523 C1.9306285,5.770709 2.81702799,7.15616523 4.10378117,7.85979655 C1.7166743,8.72974106 0.0875267176,11.0307891 0,13.656233 L0.00730279898,13.656233 C0.00639440204,13.6685142 0.000908396947,13.677984 0.000908396947,13.6903391 C0.000908396947,13.9421948 0.197870229,14.1477374 0.441391858,14.1477374 C0.745099237,14.1477374 0.973035623,13.9432121 0.973035623,13.6903391 C0.973035623,13.677984 0.967603053,13.6685142 0.966694656,13.656233 L0.975814249,13.656233 C1.08797455,10.7423674 3.30129262,8.5084402 6.134743,8.5084402 C6.79133588,8.5084402 7.41788041,8.53879162 7.99697455,8.76700986 L7.99968193,8.76036991 L7.99968193,8.76131319 Z M5.97700254,7.42318742 C4.23882952,7.42318742 2.82983461,5.96008631 2.82983461,4.15516646 C2.82983461,2.35032059 4.23882952,0.887200986 5.97700254,0.887200986 C7.71510433,0.887200986 9.1241883,2.35032059 9.1241883,4.15516646 C9.1241883,5.96008631 7.71510433,7.42318742 5.97700254,7.42318742 Z" id="Fill-2"></path>
            </g>
        </g>
    </g>
</svg>