<?xml version="1.0" encoding="UTF-8"?>
<svg width="16px" height="16px" viewBox="0 0 16 16" version="1.1" xmlns="http://www.w3.org/2000/svg" xmlns:xlink="http://www.w3.org/1999/xlink">
    <!-- Generator: Sketch 48.2 (47327) - http://www.bohemiancoding.com/sketch -->
    <title>疑问</title>
    <desc>Created with Sketch.</desc>
    <defs>
        <polygon id="path-1" points="0 0 16 0 16 16 0 16"></polygon>
    </defs>
    <g id="__wesketch_export" stroke="none" stroke-width="1" fill="none" fill-rule="evenodd">
        <g id="疑问">
            <g>
                <mask id="mask-2" fill="white">
                    <use xlink:href="#path-1"></use>
                </mask>
                <g id="Clip-2"></g>
                <path d="M7.9999442,0 C3.54282988,0 0,3.54282988 0,7.9999442 C0,12.4570808 3.65713776,16 7.9999442,16 C12.4570808,16 16,12.3428622 16,7.9999442 C16,3.65713776 12.4570808,0 7.9999442,0 Z M7.9999442,13.94286 C7.31427551,13.94286 6.85711097,13.4856955 6.85711097,12.8000045 C6.85711097,12.1142465 7.31427551,11.657082 7.9999442,11.657082 C8.68572449,11.657082 9.14288903,12.1142465 9.14288903,12.8000045 C9.14288903,13.4856955 8.68572449,13.94286 7.9999442,13.94286 Z M9.71424984,7.42858339 C9.3714155,7.88572561 8.79994308,8.45710874 8.79994308,8.79994308 L8.79994308,9.71424984 C8.79994308,10.1714144 8.45710874,10.5142487 7.9999442,10.5142487 C7.54289126,10.5142487 7.19996763,10.1714144 7.19996763,9.71424984 L7.19996763,8.79994308 C7.19996763,7.77141773 7.88572561,7.08572672 8.68572449,6.39996875 C9.25710762,5.71427774 9.48572337,5.3714434 9.48572337,5.14280533 C9.48572337,4.34282876 8.79994308,3.65713776 7.9999442,3.65713776 C7.19996763,3.65713776 6.51427663,4.34282876 6.51427663,5.14280533 C6.51427663,5.48575128 6.17141996,5.94280421 5.71427774,5.94280421 C5.25713552,5.94280421 4.91427886,5.59996987 4.91427886,5.14280533 C4.91427886,3.42861129 6.28575016,2.05713999 7.9999442,2.05713999 C9.71424984,2.05713999 11.0857211,3.42861129 11.0857211,5.14280533 C11.0857211,6.17141996 10.5142487,6.74280309 9.71424984,7.42858339 Z" id="Fill-1" fill="#999999" mask="url(#mask-2)"></path>
            </g>
        </g>
    </g>
</svg>