<?xml version="1.0" encoding="UTF-8"?>
<svg width="50px" height="50px" viewBox="0 0 50 50" version="1.1" xmlns="http://www.w3.org/2000/svg" xmlns:xlink="http://www.w3.org/1999/xlink">
    <!-- Generator: Sketch 48.2 (47327) - http://www.bohemiancoding.com/sketch -->
    <title>加载中</title>
    <desc>Created with Sketch.</desc>
    <defs></defs>
    <g id="__wesketch_export" stroke="none" stroke-width="1" fill="none" fill-rule="evenodd">
        <g id="加载中" fill="#666666">
            <path d="M42.8193592,38.2116246 C42.985985,38.2116246 43.1248059,38.0672827 43.1248059,37.8866689 C43.1272473,37.8034807 43.0961872,37.7227333 43.0390177,37.6623253 C42.9815091,37.6019173 42.9025704,37.5667302 42.8193592,37.5646284 C42.6498174,37.5646284 42.5139804,37.7089704 42.5139804,37.8866689 C42.5139804,38.0672827 42.6498174,38.2116246 42.8193592,38.2116246 Z M36.386059,45.8873062 C36.7193105,45.8873062 36.9916626,45.6013343 36.9916626,45.245666 C37.0009535,44.9015912 36.7301612,44.6148057 36.386059,44.6042292 C36.2202471,44.6087039 36.0631157,44.6786036 35.9489801,44.7991485 C35.8347767,44.9193543 35.7733347,45.0801033 35.7778106,45.245666 C35.7778106,45.6013343 36.0498914,45.8873062 36.386059,45.8873062 Z M27.6138948,49.9973559 C28.1314723,49.9822369 28.5389153,49.5510417 28.5248772,49.0336075 C28.5248772,48.5004441 28.1166882,48.0672149 27.6138948,48.0672149 C27.3643292,48.0737913 27.1277844,48.1792172 26.9560724,48.3606446 C26.7846995,48.542072 26.6925365,48.7841109 26.6999285,49.0336075 C26.6999285,49.5667031 27.1083888,50 27.6138948,50 L27.6138948,49.9973559 Z M18.1415227,49.8111148 C18.4731466,49.8016231 18.7873416,49.6610101 19.0152059,49.419717 C19.2427311,49.1786952 19.3651403,48.8569259 19.3555781,48.5253937 C19.3651403,48.194065 19.2427311,47.8722957 19.0152059,47.6310027 C18.7873416,47.3899808 18.4731466,47.2490966 18.1415227,47.2396049 C17.8101023,47.2490966 17.4959073,47.3899808 17.2681108,47.6310027 C17.0405178,47.8722957 16.9181764,48.194065 16.9276707,48.5253937 C16.9181764,48.8569259 17.0405178,49.1786952 17.2681108,49.419717 C17.4959073,49.6610101 17.8101023,49.8016231 18.1415227,49.8111148 Z M9.78046362,45.4236357 C10.6167798,45.4236357 11.2973208,44.7013838 11.2973208,43.8155352 C11.2973208,42.9269748 10.6167798,42.2077059 9.77781877,42.2077059 C8.93885778,42.2077059 8.25824889,42.9296189 8.25824889,43.8155352 C8.25824889,44.7042991 8.93885778,45.4236357 9.77781877,45.4236357 L9.78046362,45.4236357 Z M4.07775326,37.7394116 C5.08334,37.7394116 5.9000571,36.8730889 5.9000571,35.8066266 C5.9000571,34.7403676 5.08334,33.8767568 4.07775326,33.8767568 C3.06952166,33.8767568 2.25280456,34.7403676 2.25280456,35.8066266 C2.25280456,36.8730889 3.06952166,37.7394116 4.07775326,37.7394116 Z M2.12510562,28.2254554 C3.29996297,28.2254554 4.24993998,27.2174349 4.24993998,25.9761893 C4.24993998,24.7319607 3.29996297,23.7266521 2.12510562,23.7266521 C0.95289313,23.7266521 0,24.7319607 0,25.9761893 C0,27.2174349 0.95289313,28.2254554 2.12510562,28.2254554 Z M4.28330582,18.7808566 C5.62770504,18.7808566 6.71385808,17.6285619 6.71385808,16.2066347 C6.71385808,14.7847753 5.62770504,13.635057 4.28330582,13.635057 C2.94155146,13.635057 1.85275356,14.7847753 1.85275356,16.2066347 C1.85275356,17.6285619 2.94155146,18.7808566 4.28330582,18.7808566 Z M10.1499971,11.2274826 C11.6610221,11.2274826 12.885996,9.93057486 12.885996,8.3309491 C12.885996,6.73132335 11.6639382,5.43468681 10.1499971,5.43468681 C8.63897212,5.43468681 7.41372692,6.73132335 7.41372692,8.3309491 C7.41372692,9.93057486 8.63897212,11.2274826 10.1499971,11.2274826 Z M18.6194273,7.03404137 C20.297078,7.03404137 21.6555153,5.59570703 21.6555153,3.81845054 C21.6555153,2.04112626 20.2944332,0.602520729 18.6194273,0.602520729 C16.9417088,0.602520729 15.5806267,2.04404157 15.5806267,3.81845054 C15.5806267,5.59570703 16.9417088,7.03404137 18.6194273,7.03404137 Z M28.0944443,7.07851685 C29.9416369,7.07851685 31.4388951,5.4956372 31.4388951,3.53797026 C31.4388951,1.58559157 29.9416369,-5.68434189e-14 28.0944443,-5.68434189e-14 C26.2498288,-5.68434189e-14 24.7528419,1.58294745 24.7528419,3.53797026 C24.7528419,5.49299308 26.2498288,7.07851685 28.0944443,7.07851685 Z M36.7943159,11.3969776 C38.8084055,11.3969776 40.4389236,9.66941701 40.4389236,7.53669566 C40.4389236,5.40953375 38.8084055,3.67966806 36.7943159,3.67966806 C34.7833458,3.67966806 33.1499116,5.40953375 33.1499116,7.53961098 C33.1499116,9.66941701 34.7833458,11.3996217 36.7943159,11.3996217 L36.7943159,11.3969776 Z M43.0665513,19.2334759 C45.2472666,19.2334759 47.0166056,17.3618446 47.0166056,15.0540689 C47.0166056,12.743649 45.2472666,10.8720855 43.0665513,10.8720855 C40.8861072,10.8720855 39.1194131,12.743649 39.1194131,15.0540689 C39.1194131,17.3618446 40.8861072,19.2334759 43.0665513,19.2334759 Z M45.7471439,29.2919178 C48.0942816,29.2919178 50,27.2730971 50,24.7876228 C50,22.2994366 48.0942816,20.28326 45.7471439,20.28326 C43.3971579,20.28326 41.4916429,22.2994366 41.4916429,24.7876228 C41.4916429,27.2730971 43.3971579,29.2919178 45.7471439,29.2919178 Z"></path>
        </g>
    </g>
</svg>