<?xml version="1.0" encoding="UTF-8"?>
<svg width="13px" height="19px" viewBox="0 0 13 19" version="1.1" xmlns="http://www.w3.org/2000/svg" xmlns:xlink="http://www.w3.org/1999/xlink">
    <!-- Generator: Sketch 48.2 (47327) - http://www.bohemiancoding.com/sketch -->
    <title>mima-2</title>
    <desc>Created with Sketch.</desc>
    <defs></defs>
    <g id="__wesketch_export" stroke="none" stroke-width="1" fill="none" fill-rule="evenodd">
        <g id="mima-2" fill="#999999">
            <path d="M12.437425,6.2821914 L11.6565167,6.2821914 L11.6565167,4.43730929 C11.6565167,1.98629681 9.568825,0 6.9939625,0 C4.41828333,0 2.33129167,1.98660194 2.33129167,4.43730929 L2.33129167,6.2821914 L1.55038333,6.2821914 C0.6936125,6.2821914 0,6.94327323 0,7.75811373 L0,18.4790014 C0,19.2953675 0.6939625,19.9549237 1.55038333,19.9549237 L12.437425,19.9549237 C13.2943125,19.9549237 13.987925,19.2938419 13.987925,18.4790014 L13.987925,7.75811373 C13.987925,6.94185853 13.2938458,6.2821914 12.437425,6.2821914 Z M7.7471625,13.8576144 C7.76265,13.9164494 7.77110833,13.977975 7.77110833,14.0416921 L7.77110833,15.5211928 C7.77110833,15.929043 7.42609583,16.2596394 6.9939625,16.2596394 C6.564775,16.2596394 6.21681667,15.9319834 6.21681667,15.5211928 L6.21681667,14.0416921 C6.21681667,13.9781969 6.22515833,13.9164494 6.24108333,13.8576144 C5.76304167,13.6055756 5.43981667,13.1206657 5.43981667,12.5642718 C5.43981667,11.7480166 6.13570417,11.0860472 6.9939625,11.0860472 C7.8523375,11.0860472 8.548225,11.7480166 8.548225,12.5642718 C8.54810833,13.1206657 8.22488333,13.6053537 7.7471625,13.8576144 Z M10.4909,6.2821914 L3.4969375,6.2821914 L3.4969375,4.43667129 C3.4969375,2.59828017 5.062225,1.10859917 6.9939625,1.10859917 C8.92535,1.10859917 10.4909,2.5954785 10.4909,4.43667129 L10.4909,6.2821914 Z"></path>
        </g>
    </g>
</svg>