<?xml version="1.0" encoding="UTF-8"?>
<svg width="15px" height="10px" viewBox="0 0 15 10" version="1.1" xmlns="http://www.w3.org/2000/svg" xmlns:xlink="http://www.w3.org/1999/xlink">
    <!-- Generator: Sketch 48.2 (47327) - http://www.bohemiancoding.com/sketch -->
    <title>显示密码</title>
    <desc>Created with Sketch.</desc>
    <defs>
        <polygon id="path-1" points="0.00146341463 0.000952380952 14.9864634 0.000952380952 14.9864634 9.97621429 0.00146341463 9.97621429"></polygon>
    </defs>
    <g id="__wesketch_export" stroke="none" stroke-width="1" fill="none" fill-rule="evenodd">
        <g id="显示密码">
            <g>
                <mask id="mask-2" fill="white">
                    <use xlink:href="#path-1"></use>
                </mask>
                <g id="Clip-2"></g>
                <path d="M7.4932439,0.000952380952 C4.08746341,0.000952380952 1.15853659,2.06271429 0,4.98859524 C1.15853659,7.91447619 4.08746341,9.97621429 7.4932439,9.97621429 C10.8990976,9.97621429 13.8289756,7.91447619 14.9864634,4.98859524 C13.8289756,2.06271429 10.8990976,0.000952380952 7.4932439,0.000952380952 M7.4932439,8.31338095 C5.58631707,8.31338095 4.08746341,6.85111905 4.08746341,4.98859524 C4.08746341,3.12604762 5.58631707,1.66380952 7.4932439,1.66380952 C9.40129268,1.66380952 10.8990976,3.12604762 10.8990976,4.98859524 C10.8990976,6.85111905 9.40129268,8.31338095 7.4932439,8.31338095 M7.4932439,2.99352381 C6.3357561,2.99352381 5.44960976,3.85857143 5.44960976,4.98859524 C5.44960976,6.11861905 6.3357561,6.98357143 7.4932439,6.98357143 C8.65187805,6.98357143 9.53697561,6.11861905 9.53697561,4.98859524 C9.53697561,3.85857143 8.65187805,2.99352381 7.4932439,2.99352381" id="Fill-1" fill="#666666" mask="url(#mask-2)"></path>
            </g>
        </g>
    </g>
</svg>