<?xml version="1.0" encoding="UTF-8"?>
<svg width="14px" height="16px" viewBox="0 0 14 16" version="1.1" xmlns="http://www.w3.org/2000/svg" xmlns:xlink="http://www.w3.org/1999/xlink">
    <!-- Generator: Sketch 48.2 (47327) - http://www.bohemiancoding.com/sketch -->
    <title>人员</title>
    <desc>Created with Sketch.</desc>
    <defs>
        <polygon id="path-1" points="0.00129032258 0 13.9836129 0 13.9836129 16 0.00129032258 16"></polygon>
    </defs>
    <g id="__wesketch_export" stroke="none" stroke-width="1" fill="none" fill-rule="evenodd">
        <g id="人员">
            <g>
                <mask id="mask-2" fill="white">
                    <use xlink:href="#path-1"></use>
                </mask>
                <g id="Clip-2"></g>
                <path d="M6.99184946,6.97381006 C8.84475269,6.97381006 10.3466882,5.41313966 10.3466882,3.48777654 C10.3466882,1.56250279 8.84475269,0.00174301676 6.99184946,0 C5.13894624,0 3.63701075,1.56067039 3.63524731,3.48603352 L3.63524731,3.48777654 C3.63701075,5.41313966 5.13894624,6.97381006 6.99184946,6.97381006 Z M1.33165591,9.32113966 C0.669268817,11.062324 0,16 0,16 L5.69976344,16 L3.98621505,7.84444693 C2.95395699,7.84444693 1.99395699,7.57986592 1.33165591,9.32113966 Z M6.99184946,7.84444693 L5.37466667,10.1916872 L6.64776344,16 L7.33593548,16 L8.60903226,10.1916872 L6.99184946,7.84444693 Z M12.652043,9.32113966 C11.9896774,7.57986592 11.0296559,7.84444693 9.99739785,7.84444693 L8.28384946,16 L13.9836129,16 C13.9836129,16 13.3144301,11.062324 12.652043,9.32113966 Z M10.104086,12.3369385 L12.1032473,12.3369385 L12.1032473,11.8739441 L10.104086,11.8739441 L10.104086,12.3369385 Z" id="Fill-1" fill="#999999" mask="url(#mask-2)"></path>
            </g>
        </g>
    </g>
</svg>