<?xml version="1.0" encoding="UTF-8"?>
<svg width="12px" height="12px" viewBox="0 0 12 12" version="1.1" xmlns="http://www.w3.org/2000/svg" xmlns:xlink="http://www.w3.org/1999/xlink">
    <!-- Generator: Sketch 48.2 (47327) - http://www.bohemiancoding.com/sketch -->
    <title>疑问</title>
    <desc>Created with Sketch.</desc>
    <defs>
        <polygon id="path-1" points="0 0 12 0 12 12 0 12"></polygon>
    </defs>
    <g id="__wesketch_export" stroke="none" stroke-width="1" fill="none" fill-rule="evenodd">
        <g id="疑问">
            <g>
                <mask id="mask-2" fill="white">
                    <use xlink:href="#path-1"></use>
                </mask>
                <g id="Clip-2"></g>
                <path d="M5.99995815,0 C2.65712241,0 0,2.65712241 0,5.99995815 C0,9.34281063 2.74285332,12 5.99995815,12 C9.34281063,12 12,9.25714668 12,5.99995815 C12,2.74285332 9.34281063,0 5.99995815,0 Z M5.99995815,10.457145 C5.48570663,10.457145 5.14283323,10.1142716 5.14283323,9.60000335 C5.14283323,9.08568487 5.48570663,8.74281146 5.99995815,8.74281146 C6.51429337,8.74281146 6.85716677,9.08568487 6.85716677,9.60000335 C6.85716677,10.1142716 6.51429337,10.457145 5.99995815,10.457145 Z M7.28568738,5.57143754 C7.02856162,5.9142942 6.59995731,6.34283155 6.59995731,6.59995731 L6.59995731,7.28568738 C6.59995731,7.62856079 6.34283155,7.88568654 5.99995815,7.88568654 C5.65716845,7.88568654 5.39997573,7.62856079 5.39997573,7.28568738 L5.39997573,6.59995731 C5.39997573,5.8285633 5.9142942,5.31429504 6.51429337,4.79997656 C6.94283072,4.28570831 7.11429253,4.02858255 7.11429253,3.85710399 C7.11429253,3.25712157 6.59995731,2.74285332 5.99995815,2.74285332 C5.39997573,2.74285332 4.88570747,3.25712157 4.88570747,3.85710399 C4.88570747,4.11431346 4.62856497,4.45710316 4.28570831,4.45710316 C3.94285164,4.45710316 3.68570914,4.1999774 3.68570914,3.85710399 C3.68570914,2.57145847 4.71431262,1.54285499 5.99995815,1.54285499 C7.28568738,1.54285499 8.31429086,2.57145847 8.31429086,3.85710399 C8.31429086,4.62856497 7.88568654,5.05710232 7.28568738,5.57143754 Z" id="Fill-1" fill="#4C8AFF" mask="url(#mask-2)"></path>
            </g>
        </g>
    </g>
</svg>