<?xml version="1.0" encoding="UTF-8"?>
<svg width="14px" height="14px" viewBox="0 0 14 14" version="1.1" xmlns="http://www.w3.org/2000/svg" xmlns:xlink="http://www.w3.org/1999/xlink">
    <!-- Generator: Sketch 48.2 (47327) - http://www.bohemiancoding.com/sketch -->
    <title>提示</title>
    <desc>Created with Sketch.</desc>
    <defs>
        <polygon id="path-1" points="0.00102439024 0.01365371 13.9863292 0.01365371 13.9863292 13.9999878 0.00102439024 13.9999878"></polygon>
    </defs>
    <g id="__wesketch_export" stroke="none" stroke-width="1" fill="none" fill-rule="evenodd">
        <g id="提示">
            <g>
                <mask id="mask-2" fill="white">
                    <use xlink:href="#path-1"></use>
                </mask>
                <g id="Clip-2"></g>
                <path d="M7.80083415,7.47883415 C7.80090244,7.76747317 7.6469878,8.03410488 7.39701951,8.17844146 C7.14711951,8.32276098 6.83920488,8.32276098 6.58930488,8.17844146 C6.33935366,8.03410488 6.18542195,7.76747317 6.18549024,7.47883415 L6.18549024,3.71314146 C6.18542195,3.42455366 6.33935366,3.15785366 6.58930488,3.01353415 C6.83920488,2.86921463 7.14711951,2.86921463 7.39701951,3.01353415 C7.6469878,3.15785366 7.80090244,3.42455366 7.80083415,3.71314146 L7.80083415,7.47883415 Z M6.99320488,10.9753683 C6.6095878,10.9741732 6.28026341,10.7021976 6.20649024,10.3257171 C6.13280244,9.94930488 6.33520488,9.57316585 6.69001951,9.42737805 C7.04474878,9.28152195 7.45317317,9.40656585 7.6655122,9.72602195 C7.8778,10.0455463 7.8349122,10.4705146 7.56307317,10.7410732 C7.41335854,10.8941341 7.20728537,10.9788341 6.99320488,10.9753683 Z M6.99320488,0.013795122 C6.05750976,0.00778536585 5.1305561,0.193387805 4.26935122,0.559265854 C2.58837805,1.26500244 1.2513439,2.60203659 0.545607317,4.28300976 C0.179729268,5.14421463 -0.00587317073,6.07116829 0.000136585366,7.00684634 C-0.00587317073,7.94247317 0.179729268,8.86942683 0.545607317,9.73063171 C1.2513439,11.4116049 2.58837805,12.748639 4.26935122,13.4543756 C5.1305561,13.8202537 6.05750976,14.0058561 6.99320488,13.9998463 C7.92881463,14.0058561 8.85576829,13.8202537 9.71697317,13.4543756 C11.3979463,12.748639 12.7349805,11.4116049 13.4407171,9.73063171 C13.8065951,8.86942683 13.9921976,7.94247317 13.9861878,7.00684634 C13.9921976,6.07116829 13.8065951,5.14421463 13.4407171,4.28300976 C12.7349805,2.60203659 11.3979463,1.26500244 9.71697317,0.559265854 C8.85576829,0.193387805 7.92881463,0.00778536585 6.99320488,0.013795122 Z" id="Fill-1" fill="#E45A3C" mask="url(#mask-2)"></path>
            </g>
        </g>
    </g>
</svg>