<?xml version="1.0" encoding="UTF-8"?>
<svg width="12px" height="14px" viewBox="0 0 12 14" version="1.1" xmlns="http://www.w3.org/2000/svg" xmlns:xlink="http://www.w3.org/1999/xlink">
    <!-- Generator: Sketch 48.2 (47327) - http://www.bohemiancoding.com/sketch -->
    <title>筛选</title>
    <desc>Created with Sketch.</desc>
    <defs>
        <polygon id="path-1" points="0.0012543554 0.0136585366 11.9883136 0.0136585366 11.9883136 13.9999787 0.0012543554 13.9999787"></polygon>
    </defs>
    <g id="__wesketch_export" stroke="none" stroke-width="1" fill="none" fill-rule="evenodd">
        <g id="筛选">
            <g>
                <mask id="mask-2" fill="white">
                    <use xlink:href="#path-1"></use>
                </mask>
                <g id="Clip-2"></g>
                <path d="M8.0767108,6.56098476 C8.0767108,6.80575 7.88569338,7.00424695 7.64853659,7.00424695 C7.41050174,7.00232622 7.21891986,6.804 7.22038328,6.56098476 L7.22038328,6.10030793 C7.22038328,5.78910671 7.32654355,5.48840549 7.51837631,5.24891159 L11.0163554,0.900908537 L0.856327526,0.900908537 L4.35430662,5.24891159 C4.54613937,5.48840549 4.65148432,5.78910671 4.65148432,6.10030793 L4.65148432,13.5568232 C4.65148432,13.8015884 4.4604669,13.9999787 4.22333101,13.9999787 C3.98527526,13.9980793 3.79369338,13.7998171 3.79515679,13.5568232 L3.79515679,6.10030793 C3.79532404,5.99718598 3.76053659,5.89715854 3.69666899,5.81712805 L0.198689895,1.46820732 C0.0700766551,1.30797561 -0.000167247387,1.1072378 0,0.90007622 C0,0.41139939 0.383665505,0.0136585366 0.856327526,0.0136585366 L11.0163554,0.0136585366 C11.2167596,0.0136585366 11.4103066,0.0861768293 11.5644042,0.219070122 C11.9274774,0.532939024 11.9771289,1.09232012 11.673993,1.469125 L8.17601394,5.81712805 C8.11191638,5.8969878 8.07679443,5.99701524 8.0767108,6.10030793 L8.0767108,6.56098476 Z M7.27860627,8.44044207 L11.5601603,8.44044207 C11.7965017,8.44044207 11.9883136,8.63968598 11.9883136,8.88445122 C11.9883136,9.12930183 11.7965017,9.32771341 11.5601603,9.32771341 L7.27860627,9.32771341 C7.04055052,9.32579268 6.84905226,9.12746646 6.85045296,8.88445122 C6.85045296,8.63968598 7.04226481,8.44044207 7.27860627,8.44044207 Z M7.27860627,10.2149634 L11.5601603,10.2149634 C11.7965017,10.2149634 11.9883136,10.413375 11.9883136,10.6581402 C11.9883136,10.9028841 11.7965017,11.1022134 11.5601603,11.1022134 L7.27860627,11.1022134 C7.16412544,11.1012957 7.05476655,11.053939 6.97440418,10.9706646 C6.89414634,10.8873902 6.84955401,10.7750061 6.85045296,10.6581402 C6.85045296,10.413375 7.04226481,10.2149634 7.27860627,10.2149634 Z M7.27860627,11.9894634 L11.5601603,11.9894634 C11.7965017,11.9894634 11.9883136,12.187875 11.9883136,12.4326402 C11.9883136,12.6774055 11.7965017,12.8758171 11.5601603,12.8758171 L7.27860627,12.8758171 C7.04055052,12.8738963 6.84905226,12.6756555 6.85045296,12.4326402 C6.85045296,12.187875 7.04226481,11.9885457 7.27860627,11.9885457 L7.27860627,11.9894634 Z" id="Fill-1" fill="#9DA7B2" mask="url(#mask-2)"></path>
            </g>
        </g>
    </g>
</svg>