<?xml version="1.0" encoding="UTF-8"?>
<svg width="12px" height="12px" viewBox="0 0 12 12" version="1.1" xmlns="http://www.w3.org/2000/svg" xmlns:xlink="http://www.w3.org/1999/xlink">
    <!-- Generator: Sketch 48.2 (47327) - http://www.bohemiancoding.com/sketch -->
    <title>点击设置</title>
    <desc>Created with Sketch.</desc>
    <defs>
        <polygon id="path-1" points="0.0012972973 0.0125017422 11.9938379 0.0125017422 11.9938379 12 0.0012972973 12"></polygon>
    </defs>
    <g id="__wesketch_export" stroke="none" stroke-width="1" fill="none" fill-rule="evenodd">
        <g id="点击设置">
            <g>
                <g id="Group-3">
                    <mask id="mask-2" fill="white">
                        <use xlink:href="#path-1"></use>
                    </mask>
                    <g id="Clip-2"></g>
                    <path d="M11.5044757,4.59497561 L10.3507676,4.59497561 C10.3172324,4.48873171 10.2776216,4.38650174 10.2402811,4.28408362 L10.2265297,4.25632056 C10.1794811,4.14183972 10.1303135,4.03958885 10.0747459,3.9254216 L10.8833514,3.11759582 L10.8894486,3.10960976 C11.0769514,2.92039024 11.0769514,2.61275958 10.8894486,2.42410453 L9.5836973,1.1152892 L9.5836973,1.11970035 C9.39814054,0.926320557 9.08471351,0.926320557 8.89721081,1.1152892 L8.08276757,1.93902439 C7.9723027,1.87998606 7.85794595,1.82887108 7.7435027,1.7777561 C7.64281081,1.73437631 7.52246486,1.69509408 7.40616216,1.65558188 L7.40616216,0.500843206 C7.40616216,0.241087108 7.18724324,0.0125017422 6.92112432,0.0125017422 L5.07491892,0.0125017422 C4.80683243,0.0125017422 4.58962162,0.241087108 4.58962162,0.500843206 L4.58962162,1.65558188 C4.46951351,1.6951777 4.35701622,1.73437631 4.24652973,1.7777561 C4.13016216,1.82887108 4.02542703,1.87998606 3.91301622,1.93902439 L3.12441081,1.13922648 L3.09831351,1.1152892 C2.91107027,0.926320557 2.59991351,0.926320557 2.41401081,1.1152892 L1.10633514,2.42410453 C0.913340541,2.61275958 0.913340541,2.92039024 1.10633514,3.10960976 L1.92298378,3.93334495 C1.87178378,4.02374216 1.82644324,4.13032056 1.78497297,4.23271777 L1.7712,4.25640418 C1.72196757,4.36680836 1.68015135,4.48072474 1.64307027,4.59497561 L0.483113514,4.59497561 C0.216886486,4.59497561 0,4.81172822 0,5.08390244 L0,6.93188153 C0,7.19997909 0.216886486,7.41278049 0.483113514,7.41278049 L1.64722162,7.41278049 C1.67904865,7.52017422 1.71781622,7.62560279 1.76317838,7.72833449 L1.7712,7.75145645 C1.81848649,7.87394425 1.87178378,7.97993728 1.92905946,8.08243902 L1.12812973,8.87874564 L1.10633514,8.9025784 C0.921275676,9.09131707 0.921275676,9.39861324 1.10633514,9.59199303 L2.41401081,10.8924878 C2.59991351,11.0776098 2.91107027,11.0776098 3.09831351,10.8924878 L3.92095135,10.072662 C4.01772973,10.1278746 4.11647568,10.1751429 4.21874595,10.2185226 L4.24652973,10.2261951 C4.35701622,10.2737143 4.46951351,10.3134774 4.58572973,10.3566899 L4.58572973,11.5110941 C4.58572973,11.7791916 4.80683243,12 5.07491892,12 L6.92112432,12 C7.18724324,12 7.40616216,11.7791916 7.40616216,11.5110941 L7.40616216,10.3566899 C7.52246486,10.3134774 7.64281081,10.2737143 7.75143784,10.2261951 C7.85785946,10.1830662 7.97221622,10.1317003 8.07669189,10.072662 L8.88564324,10.8843136 L8.89721081,10.8925714 C9.08471351,11.0776098 9.39814054,11.0776098 9.5836973,10.8925714 L10.8833514,9.6035122 L10.8894486,9.59199303 C11.0769514,9.39869686 11.0769514,9.09131707 10.8894486,8.9025784 L10.0747459,8.08243902 C10.130227,7.98002091 10.1794811,7.87394425 10.2265297,7.75154007 C10.2718703,7.64903833 10.3092973,7.53503833 10.3507676,7.41286411 L11.5043892,7.41286411 C11.7730595,7.41286411 11.9899459,7.19230662 11.9899459,6.92395819 L11.9899459,5.12726132 L11.9938378,5.07974216 C11.9939243,4.81172822 11.7750054,4.59497561 11.5044757,4.59497561 Z M6.00177297,3.95285017 C5.43589189,3.95285017 4.91740541,4.18168641 4.54838919,4.55161672 C4.17558919,4.92244599 3.94678919,5.43873868 3.94678919,6.0021324 C3.94678919,6.56960279 4.17558919,7.0821324 4.54838919,7.4562439 C4.91740541,7.8225784 5.43589189,8.05498955 6.00177297,8.05498955 C6.5700973,8.05498955 7.08064865,7.8225784 7.44957838,7.4562439 C7.82028108,7.0821324 8.05532973,6.56960279 8.05532973,6.0021324 C8.05532973,5.43873868 7.82028108,4.92244599 7.44957838,4.55161672 C7.08064865,4.18168641 6.5700973,3.95285017 6.00177297,3.95285017 Z" id="Fill-1" fill="#4C8AFF" mask="url(#mask-2)"></path>
                </g>
                <path d="M7.38064865,7.38591638 C7.02458378,7.73389547 6.53664865,7.96549129 5.99915676,7.96549129 C5.45396757,7.96549129 4.96596757,7.73389547 4.60473514,7.38591638 C4.24914595,7.03877352 4.0331027,6.53849477 4.0331027,5.99600697 C4.0331027,5.45351916 4.24914595,4.963777 4.60473514,4.61588153 C4.96596757,4.2635122 5.45396757,4.04692683 5.99915676,4.04692683 C6.53664865,4.04692683 7.02467027,4.2635122 7.38064865,4.61588153 C7.73885405,4.963777 7.96082162,5.45343554 7.96082162,5.99600697 C7.96082162,6.53849477 7.73885405,7.03877352 7.38064865,7.38591638 Z" id="Fill-4" fill="#FFFFFF"></path>
            </g>
        </g>
    </g>
</svg>