<?xml version="1.0" encoding="UTF-8"?>
<svg width="32px" height="32px" viewBox="0 0 32 32" version="1.1" xmlns="http://www.w3.org/2000/svg" xmlns:xlink="http://www.w3.org/1999/xlink">
    <!-- Generator: Sketch 48.2 (47327) - http://www.bohemiancoding.com/sketch -->
    <title>完成</title>
    <desc>Created with Sketch.</desc>
    <defs></defs>
    <g id="__wesketch_export" stroke="none" stroke-width="1" fill="none" fill-rule="evenodd">
        <g id="完成" fill="#4C8AFF">
            <g>
                <path d="M25.6705653,25.6622554 C29.5713974,21.7635811 30.7394204,15.8988121 28.62967,10.8032367 C26.5199197,5.70766141 21.5480746,2.38498709 16.0328264,2.38498709 C10.5177618,2.38498709 5.54591679,5.70766141 3.43616643,10.8032367 C1.32641607,15.8988121 2.49443902,21.7635811 6.39527116,25.6622554 C11.7189785,30.9827489 20.346858,30.9827489 25.6705653,25.6622554 Z M27.3066514,27.2982037 C22.7394204,31.8812281 15.8599254,33.2589268 9.88019512,30.7879943 C3.90046485,28.3171994 0,22.4852568 0,16.0151966 C0,9.54499857 3.90046485,3.71301004 9.88019512,1.24226112 C15.8599254,-1.22871736 22.7394204,0.148981349 27.3066514,4.73205165 C33.5227776,10.9698479 33.5227776,21.0604075 27.3066514,27.2982037 Z" id="Fill-1"></path>
                <path d="M22.7180717,10.6744562 C22.9931707,10.2960574 23.4652281,10.1147547 23.9228694,10.212132 C24.3805567,10.3093257 24.7379742,10.6669268 24.8353515,11.1246141 C24.9325452,11.5823013 24.7514261,12.0543128 24.3730273,12.3294118 L15.1960057,21.5062496 C14.6676614,22.0030072 13.8439713,22.0030072 13.315627,21.5062496 L8.0876901,16.3159598 C7.70929125,16.0410445 7.52798852,15.5689871 7.62536585,15.1113458 C7.72255954,14.6536585 8.08016069,14.2960574 8.53784792,14.1988637 C8.99553515,14.1014864 9.46754663,14.2826055 9.74264562,14.6611879 L14.142944,19.1556499 L22.7180717,10.6744562 Z" id="Fill-3"></path>
            </g>
        </g>
    </g>
</svg>