<?xml version="1.0" encoding="UTF-8"?>
<svg width="20px" height="20px" viewBox="0 0 20 20" version="1.1" xmlns="http://www.w3.org/2000/svg" xmlns:xlink="http://www.w3.org/1999/xlink">
    <!-- Generator: Sketch 48.2 (47327) - http://www.bohemiancoding.com/sketch -->
    <title>完成</title>
    <desc>Created with Sketch.</desc>
    <defs></defs>
    <g id="__wesketch_export" stroke="none" stroke-width="1" fill="none" fill-rule="evenodd">
        <g id="完成" fill="#4C8AFF">
            <g>
                <path d="M16.1262553,16.1489893 C18.6058536,13.6707028 19.3483177,9.94262063 18.0072363,6.70349504 C16.6661549,3.46436945 13.5057578,1.35223122 9.99994163,1.35223122 C6.49424224,1.35223122 3.33384512,3.46436945 1.99276371,6.70349504 C0.651682306,9.94262063 1.39414639,13.6707028 3.87374472,16.1489893 C7.25780619,19.5310896 12.7421938,19.5310896 16.1262553,16.1489893 Z M17.0833422,17.0775021 C14.2260321,19.9446025 9.92214419,20.8064789 6.181159,19.2606849 C2.44017381,17.714977 0,14.0665642 0,10.0189505 C0,5.97125062 2.44017381,2.32280907 6.181159,0.777129926 C9.92214419,-0.768692828 14.2260321,0.0931835622 17.0833422,2.96031268 C20.9722193,6.86262405 20.9722193,13.1751908 17.0833422,17.0775021 Z" id="Fill-1"></path>
                <path d="M14.1987948,6.67153515 C14.3707317,6.43503587 14.6657676,6.32172166 14.9517934,6.3825825 C15.2378479,6.44332855 15.4612339,6.66682927 15.5220947,6.95288379 C15.5828407,7.23893831 15.4696413,7.53394548 15.233142,7.70588235 L9.49750359,13.441406 C9.16728838,13.7518795 8.65248207,13.7518795 8.32226686,13.441406 L5.05480631,10.1974749 C4.81830703,10.0256528 4.70499283,9.73061693 4.76585366,9.4445911 C4.82659971,9.15853659 5.05010043,8.93503587 5.33615495,8.87428981 C5.62220947,8.81342898 5.91721664,8.92662841 6.08915352,9.16324247 L8.83934003,11.9722812 L14.1987948,6.67153515 Z" id="Fill-3"></path>
            </g>
        </g>
    </g>
</svg>