<?xml version="1.0" encoding="UTF-8"?>
<svg width="16px" height="18px" viewBox="0 0 16 18" version="1.1" xmlns="http://www.w3.org/2000/svg" xmlns:xlink="http://www.w3.org/1999/xlink">
    <!-- Generator: Sketch 48.2 (47327) - http://www.bohemiancoding.com/sketch -->
    <title>yanzhengmatianchong</title>
    <desc>Created with Sketch.</desc>
    <defs></defs>
    <g id="__wesketch_export" stroke="none" stroke-width="1" fill="none" fill-rule="evenodd">
        <g id="yanzhengmatianchong" fill="#999999">
            <path d="M15.5288766,2.83503289 C15.4870014,2.83143727 11.2466241,2.37400487 8.29914008,0.141390987 C8.12109847,0.00548112058 7.87257698,0.00548112058 7.69451318,0.141390987 C4.7628294,2.36133252 0.506674064,2.83143727 0.464887656,2.83503289 C0.19912344,2.86064068 0,3.09203167 0,3.36909135 C0,3.49112302 0.0105852982,6.39072351 0.957514563,9.64565408 C1.51838003,11.5737369 2.29221637,13.2249135 3.26195839,14.5517832 C4.49020804,16.2338733 6.18793897,17.3947747 7.99618308,18 C9.80626907,17.3947747 11.5017365,16.2357588 12.7298974,14.5517832 C13.6978197,13.2266236 14.4735645,11.5775079 15.034319,9.64565408 C15.9795395,6.39072351 15.9918558,3.49112302 15.9918558,3.36909135 C15.9936755,3.09203167 15.7944632,2.86235079 15.5288766,2.83503289 Z M11.8794119,7.1384799 L7.74575312,11.6398392 C7.64338419,11.7717369 7.49072954,11.8563435 7.32351734,11.873905 C7.30478779,11.8757028 7.28596949,11.8764702 7.26717337,11.8761413 C7.11753675,11.8761413 6.9677448,11.822514 6.85940638,11.7323386 L4.20267406,9.44269915 C3.94469903,9.22678685 3.91556172,8.84251644 4.13401387,8.58950792 C4.25042996,8.4548916 4.42077115,8.37754202 4.59994452,8.37806821 C4.74558669,8.37806821 4.88730097,8.4294592 4.99757004,8.52178319 L7.16123162,10.3943532 L10.9017032,6.400743 C11.1056644,6.13561023 11.4903745,6.08421924 11.7629071,6.28976127 C11.8919057,6.38842144 11.9772982,6.53025091 11.9980028,6.69056273 C12.0212372,6.84951523 11.9784965,7.01103289 11.8794119,7.1384799 Z"></path>
        </g>
    </g>
</svg>