<?xml version="1.0" encoding="UTF-8"?>
<svg width="19px" height="14px" viewBox="0 0 19 14" version="1.1" xmlns="http://www.w3.org/2000/svg" xmlns:xlink="http://www.w3.org/1999/xlink">
    <!-- Generator: Sketch 48.2 (47327) - http://www.bohemiancoding.com/sketch -->
    <title>youxiang</title>
    <desc>Created with Sketch.</desc>
    <defs></defs>
    <g id="__wesketch_export" stroke="none" stroke-width="1" fill="none" fill-rule="evenodd">
        <g id="youxiang" fill="#999999">
            <path d="M18.959799,1.73996825 C18.9084634,2.1567619 18.7206968,2.55803175 18.3985383,2.876 L10.8853816,10.2447937 C10.1163833,10.9990159 8.85934072,10.9990159 8.09034242,10.2447937 L0.57718569,2.876 C0.252988075,2.55803175 0.065253833,2.1547619 0.0157955707,1.73996825 C0.00595570698,1.81946032 0,1.89892063 0,1.9804127 L0,12.0613968 C0,13.127619 0.889471891,14 1.9767121,14 L16.9991414,14 C18.0861227,14 18.975724,13.127619 18.975724,12.0613968 L18.975724,1.9804127 C18.975724,1.89892063 18.9697683,1.81946032 18.959799,1.73996825 Z M10.8853816,8.83346032 L18.7622896,1.10787302 C18.4359557,0.475936508 17.765971,0.0416825397 16.9991414,0.0416825397 L1.9767121,0.0416825397 C1.20975298,0.0416825397 0.539638842,0.475936508 0.213563884,1.10787302 L8.09034242,8.83346032 C8.85921124,9.58768254 10.1163833,9.58768254 10.8853816,8.83346032 Z"></path>
        </g>
    </g>
</svg>