<?xml version="1.0" encoding="UTF-8"?>
<svg width="16px" height="16px" viewBox="0 0 16 16" version="1.1" xmlns="http://www.w3.org/2000/svg" xmlns:xlink="http://www.w3.org/1999/xlink">
    <!-- Generator: Sketch 48.2 (47327) - http://www.bohemiancoding.com/sketch -->
    <title>层级</title>
    <desc>Created with Sketch.</desc>
    <defs>
        <polygon id="path-1" points="0.00133891213 0 15.9853612 0 15.9853612 16 0.00133891213 16"></polygon>
    </defs>
    <g id="__wesketch_export" stroke="none" stroke-width="1" fill="none" fill-rule="evenodd">
        <g id="层级">
            <g>
                <mask id="mask-2" fill="white">
                    <use xlink:href="#path-1"></use>
                </mask>
                <g id="Clip-2"></g>
                <polygon id="Fill-1" fill="#999999" mask="url(#mask-2)" points="14.7581144 7.42205587 8.58376569 7.42205587 8.58376569 3.69850279 11.077311 3.69850279 11.077311 0 4.97620084 0 4.97620084 3.69850279 7.42748117 3.69850279 7.42748117 7.42205587 1.23378522 7.42205587 1.23378522 12.3533408 0 12.3533408 0 16 3.67529149 16 3.67529149 12.3533408 2.46739191 12.3533408 2.46739191 8.65486034 7.42748117 8.65486034 7.42748117 12.3533408 6.16796653 12.3533408 6.16796653 16 9.84328033 16 9.84328033 12.3533408 8.58376569 12.3533408 8.58376569 8.65486034 13.5308675 8.65486034 13.5308675 12.3533408 12.3104937 12.3533408 12.3104937 16 15.9853612 16 15.9853612 12.3533408 14.7581144 12.3533408"></polygon>
            </g>
        </g>
    </g>
</svg>