<?xml version="1.0" encoding="UTF-8"?>
<svg width="15px" height="14px" viewBox="0 0 15 14" version="1.1" xmlns="http://www.w3.org/2000/svg" xmlns:xlink="http://www.w3.org/1999/xlink">
    <!-- Generator: Sketch 48.2 (47327) - http://www.bohemiancoding.com/sketch -->
    <title>文件</title>
    <desc>Created with Sketch.</desc>
    <defs></defs>
    <g id="__wesketch_export" stroke="none" stroke-width="1" fill="none" fill-rule="evenodd">
        <g id="文件" fill="#4C8AFF">
            <path d="M14.0476045,13.9940756 L1.03628178,13.9940756 C1.03628178,13.9940756 0,14.1595177 0,12.7418562 L0,1.28283559 C0,1.28283559 0.0230823448,0.00703157746 1.28960057,0.00703157746 L5.84928204,0.00703157746 C5.84928204,0.00703157746 6.40204644,-0.111124687 6.86263295,0.621261535 C7.30013712,1.33012141 7.55347484,1.77900642 7.55347484,1.77900642 C7.55347484,1.77900642 7.71465361,1.96803313 8.0831569,1.96803313 L13.9554455,1.96803313 C13.9554455,1.96803313 14.9917841,1.84987687 14.9917841,3.03122581 L14.9917841,12.8127461 C14.9917841,12.8127461 15.1529629,13.9940756 14.0475288,13.9940756 L14.0476045,13.9940756 Z M13.0803425,5.01590913 C13.0803425,4.73238849 12.8500872,4.49607596 12.5737428,4.49607596 L2.44104791,4.49607596 C2.14164017,4.49607596 1.91136585,4.73238849 1.91136585,5.01590913 L1.91136585,5.06309781 C1.91136585,5.37030021 2.14164017,5.60653503 2.44104791,5.60653503 L12.5737428,5.60653503 C12.8500872,5.60653503 13.0803425,5.37030021 13.0803425,5.06309781 L13.0803425,5.01590913 Z"></path>
        </g>
    </g>
</svg>