<?xml version="1.0" encoding="UTF-8"?>
<svg width="13px" height="3px" viewBox="0 0 13 3" version="1.1" xmlns="http://www.w3.org/2000/svg" xmlns:xlink="http://www.w3.org/1999/xlink">
    <!-- Generator: Sketch 48.2 (47327) - http://www.bohemiancoding.com/sketch -->
    <title>更多</title>
    <desc>Created with Sketch.</desc>
    <defs></defs>
    <g id="__wesketch_export" stroke="none" stroke-width="1" fill="none" fill-rule="evenodd">
        <g id="更多" fill="#4C8AFF">
            <g>
                <path d="M0,1.5 C0,2.32838765 0.671534225,3 1.5,3 C2.32838765,3 3,2.32838765 3,1.5 C3,0.671534225 2.32838765,0 1.5,0 C0.671534225,0 0,0.671534225 0,1.5 Z" id="Fill-1"></path>
                <path d="M5,1.5 C5,2.32838765 5.67153655,3 6.49995117,3 C7.32844391,3 8,2.32838765 8,1.5 C8,0.671534225 7.32844391,0 6.49995117,0 C5.67153655,0 5,0.671534225 5,1.5 Z" id="Fill-4"></path>
                <path d="M10,1.5 C10,2.32838765 10.6716123,3 11.5,3 C12.3283877,3 13,2.32838765 13,1.5 C13,0.671534225 12.3283877,0 11.5,0 C10.6716123,0 10,0.671534225 10,1.5 Z" id="Fill-5"></path>
            </g>
        </g>
    </g>
</svg>