<?xml version="1.0" encoding="UTF-8"?>
<svg width="12px" height="14px" viewBox="0 0 12 14" version="1.1" xmlns="http://www.w3.org/2000/svg" xmlns:xlink="http://www.w3.org/1999/xlink">
    <!-- Generator: Sketch 48.2 (47327) - http://www.bohemiancoding.com/sketch -->
    <title>退出</title>
    <desc>Created with Sketch.</desc>
    <defs>
        <polygon id="path-1" points="0.00117073171 0.00292780569 11.9810097 0.00292780569 11.9810097 11.676035 0.00117073171 11.676035"></polygon>
    </defs>
    <g id="__wesketch_export" stroke="none" stroke-width="1" fill="none" fill-rule="evenodd">
        <g id="退出">
            <g>
                <g id="Group-3" transform="translate(0.000000, 1.526403)">
                    <mask id="mask-2" fill="white">
                        <use xlink:href="#path-1"></use>
                    </mask>
                    <g id="Clip-2"></g>
                    <path d="M8.25830244,0.963101116 C8.01272195,0.834169582 7.91662439,0.527441779 8.0435122,0.278023488 C8.17041951,0.0285259037 8.47233171,-0.0691242712 8.71783415,0.059807263 C11.183161,1.36282059 12.4599024,4.2026645 11.8150829,6.94892204 C11.1702829,9.69523905 8.7692878,11.6438219 5.99047805,11.676035 C3.21166829,11.6438219 0.810673171,9.69523905 0.165931707,6.94892204 C-0.478887805,4.2026645 0.797873171,1.36282059 3.26318049,0.059807263 C3.50868293,-0.0691242712 3.81059512,0.0285259037 3.93750244,0.278023488 C4.06440976,0.527441779 3.96821463,0.834169582 3.7227122,0.963101116 C1.49207805,2.08126104 0.399317073,4.68671281 1.15077073,7.0957343 C1.90212683,9.50481526 4.2724878,10.995378 6.72987317,10.604242 C9.1873561,10.2131259 10.9954341,8.05748742 10.9856,5.5304571 C10.9898537,3.60929002 9.93734634,1.84671031 8.25830244,0.963101116 Z" id="Fill-1" fill="#666666" mask="url(#mask-2)"></path>
                </g>
                <path d="M5.49100488,0.515448609 C5.49100488,0.235125604 5.71463415,0.00792936865 5.99047805,0.00792936865 C6.26638049,0.00792936865 6.49000976,0.235125604 6.49000976,0.515448609 L6.49000976,5.59024454 C6.49000976,5.87046843 6.26638049,6.09766467 5.99047805,6.09766467 C5.71463415,6.09766467 5.49100488,5.87046843 5.49100488,5.59024454 L5.49100488,0.515448609 Z" id="Fill-4" fill="#666666"></path>
            </g>
        </g>
    </g>
</svg>