<?xml version="1.0" encoding="UTF-8"?>
<svg width="50px" height="50px" viewBox="0 0 50 50" version="1.1" xmlns="http://www.w3.org/2000/svg" xmlns:xlink="http://www.w3.org/1999/xlink">
    <!-- Generator: Sketch 48.2 (47327) - http://www.bohemiancoding.com/sketch -->
    <title>计划</title>
    <desc>Created with Sketch.</desc>
    <defs>
        <path d="M36.978666,20.7955497 L34.936117,19.2272302 L35.957451,17.6590734 L38,19.2272302 L36.978666,20.7955497 Z M28.2979222,30.2046129 L28.2979222,28.1136964 L34.4254103,19.7499898 L36.468118,21.3181467 L30.3404711,29.6818533 L28.2979222,30.2046129 Z M27.2700376,31.674826 L30.7802728,30.8253569 L35.446784,24.5887775 L35.446784,34.3864865 C35.446784,35.8301613 34.3033711,37 32.8935283,37 L16.553216,37 C15.1429365,37 14,35.8301613 14,34.3864865 L14,16.6136761 C14,15.1700013 15.1429365,14 16.553216,14 L32.8935283,14 C34.2973366,14 35.434199,15.1598411 35.4447593,16.5941686 L27.3368931,27.9697069 L27.2700376,31.674826 Z M22.1702356,31.7727698 L24.2127845,31.7727698 C24.776809,31.7727698 25.2341583,31.3047936 25.2341583,30.7274131 C25.2341583,30.1500326 24.776809,29.6818533 24.2127845,29.6818533 L22.1702356,29.6818533 C21.6062111,29.6818533 21.1488618,30.1500326 21.1488618,30.7274131 C21.1488618,31.3047936 21.6062111,31.7727698 22.1702356,31.7727698 Z M22.1702356,26.5455395 L25.7446665,26.5455395 C26.3086909,26.5455395 26.7658814,26.0774008 26.7658814,25.5000203 C26.7658814,24.9226398 26.3086909,24.454623 25.7446665,24.454623 L22.1702356,24.454623 C21.6062111,24.454623 21.1488618,24.9226398 21.1488618,25.5000203 C21.1488618,26.0774008 21.6062111,26.5455395 22.1702356,26.5455395 Z M18.5958047,19.2272302 L18.0850979,19.2272302 C17.5210735,19.2272302 17.0639227,19.6954096 17.0639227,20.2727901 C17.0639227,20.8501706 17.5210735,21.3181467 18.0850979,21.3181467 L18.5958047,21.3181467 C19.1598291,21.3181467 19.6171387,20.850008 19.6171387,20.2727901 C19.6169799,19.6954096 19.1598291,19.2272302 18.5958047,19.2272302 Z M18.5958047,24.454623 L18.0850979,24.454623 C17.5210735,24.454623 17.0639227,24.9226398 17.0639227,25.5000203 C17.0639227,26.0774008 17.5210735,26.545377 18.0850979,26.545377 L18.5958047,26.545377 C19.1598291,26.545377 19.6171387,26.0774008 19.6171387,25.5000203 C19.6169799,24.9226398 19.1598291,24.454623 18.5958047,24.454623 Z M18.5958047,29.6818533 L18.0850979,29.6818533 C17.5210735,29.6818533 17.0639227,30.1500326 17.0639227,30.7274131 C17.0639227,31.3047936 17.5210735,31.7727698 18.0850979,31.7727698 L18.5958047,31.7727698 C19.1598291,31.7727698 19.6171387,31.3047936 19.6171387,30.7274131 C19.6171387,30.1500326 19.1598291,29.6818533 18.5958047,29.6818533 Z M30.3404711,20.2727901 C30.3404711,19.6954096 29.8831218,19.2272302 29.3190974,19.2272302 L22.1702356,19.2272302 C21.6062111,19.2272302 21.1488618,19.6954096 21.1488618,20.2727901 C21.1488618,20.8501706 21.6062111,21.3181467 22.1702356,21.3181467 L29.3190974,21.3181467 C29.8831218,21.3181467 30.3404711,20.850008 30.3404711,20.2727901 Z" id="path-1"></path>
    </defs>
    <g id="__wesketch_export" stroke="none" stroke-width="1" fill="none" fill-rule="evenodd">
        <g id="计划">
            <g>
                <circle id="Oval-Copy-2" fill="#4C8AFF" cx="25" cy="25" r="25"></circle>
                <mask id="mask-2" fill="white">
                    <use xlink:href="#path-1"></use>
                </mask>
                <use id="jihuashucur-copy" fill="#FFFFFF" xlink:href="#path-1"></use>
            </g>
        </g>
    </g>
</svg>