<?xml version="1.0" encoding="UTF-8"?>
<svg width="50px" height="50px" viewBox="0 0 50 50" version="1.1" xmlns="http://www.w3.org/2000/svg" xmlns:xlink="http://www.w3.org/1999/xlink">
    <!-- Generator: Sketch 48.2 (47327) - http://www.bohemiancoding.com/sketch -->
    <title>已签退</title>
    <desc>Created with Sketch.</desc>
    <defs></defs>
    <g id="__wesketch_export" stroke="none" stroke-width="1" fill="none" fill-rule="evenodd">
        <g id="已签退">
            <g>
                <circle id="Oval-Copy-2" fill="#FAB334" cx="25" cy="25" r="25"></circle>
                <path d="M35.8732813,38 L14.124875,38 C13.5034062,38 13,37.4552984 13,36.7839537 L13,16.5174762 C13,15.8462582 13.5035312,15.3015566 14.124875,15.3015566 L16.37475,15.3015566 L16.37475,16.5174762 C16.37475,18.0849501 17.5500625,19.3548015 18.9995,19.3548015 C20.4490937,19.3548015 21.624375,18.0849501 21.624375,16.5174762 L21.624375,15.3015566 L28.3739063,15.3015566 L28.3739063,16.5176029 C28.3739063,18.0850767 29.5491875,19.3549281 30.9987813,19.3549281 C32.44825,19.3549281 33.6235312,18.0850767 33.6235312,16.5176029 L33.6235312,15.3015566 L35.8734063,15.3015566 C36.494875,15.3015566 36.9982813,15.8462582 36.9982813,16.5176029 L36.9982813,36.7839537 C36.9982813,37.4552984 36.49475,38 35.8732813,38 Z M15.249875,35.5680658 L34.7484063,35.5680658 L34.7484063,21.7867357 L15.249875,21.7867357 L15.249875,35.5680658 Z M21.249375,27.4614811 C21.5599375,27.4614811 21.8411875,27.5975615 22.0450313,27.817754 L23.8741562,29.7952107 L28.328625,24.9803021 C28.5320938,24.7602363 28.8133438,24.6241559 29.1237813,24.6241559 C29.74525,24.6241559 30.2487813,25.1687308 30.2487813,25.8400755 C30.2487813,26.1757004 30.1230625,26.4797515 29.9190625,26.6998173 L24.6694375,32.3744677 C24.4659375,32.5945335 24.1848125,32.7307406 23.8741562,32.7307406 C23.5637187,32.7307406 23.2824687,32.5945335 23.0785,32.3744677 L20.45375,29.5372692 C20.25025,29.3172034 20.1245,29.0129939 20.1245,28.6774007 C20.1245,28.0060244 20.6279375,27.4614811 21.249375,27.4614811 Z M30.9986562,17.7334909 C30.3776875,17.7334909 29.8737813,17.188821 29.8737813,16.5174762 L29.8737813,13.2748867 C29.8737813,12.603542 30.3775625,12.0588721 30.9986562,12.0588721 C31.620125,12.0588721 32.1236562,12.603542 32.1236562,13.2748867 L32.1236562,16.5174762 C32.1236562,17.188821 31.620125,17.7334909 30.9986562,17.7334909 Z M18.9995,17.7334909 C18.3781875,17.7334909 17.874625,17.188821 17.874625,16.5174762 L17.874625,13.2748867 C17.874625,12.603542 18.3781875,12.0588721 18.9995,12.0588721 C19.6205937,12.0588721 20.1245,12.603542 20.1245,13.2748867 L20.1245,16.5174762 C20.1245,17.188821 19.6205937,17.7334909 18.9995,17.7334909 Z" id="qiandao" fill="#FFFFFF"></path>
            </g>
        </g>
    </g>
</svg>