<?xml version="1.0" encoding="UTF-8"?>
<svg width="20px" height="20px" viewBox="0 0 20 20" version="1.1" xmlns="http://www.w3.org/2000/svg" xmlns:xlink="http://www.w3.org/1999/xlink">
    <!-- Generator: Sketch 48.2 (47327) - http://www.bohemiancoding.com/sketch -->
    <title>设置</title>
    <desc>Created with Sketch.</desc>
    <defs>
        <polygon id="path-1" points="0.00146341463 0.0195121951 19.9804634 0.0195121951 19.9804634 19.9999756 0.00146341463 19.9999756"></polygon>
    </defs>
    <g id="__wesketch_export" stroke="none" stroke-width="1" fill="none" fill-rule="evenodd">
        <g id="设置">
            <g>
                <mask id="mask-2" fill="white">
                    <use xlink:href="#path-1"></use>
                </mask>
                <g id="Clip-2"></g>
                <path d="M18.3570976,10.0098049 C18.3570976,8.88585366 18.9814146,7.88680488 19.9804634,7.51217073 C19.4809512,5.76390244 18.482,4.1405122 17.2331463,2.8917561 C16.359,3.51607317 15.1102439,3.64097561 14.1111951,3.14146341 C13.1122439,2.51702439 12.6127073,1.51807317 12.7375122,0.394121951 C11.8633659,0.144414634 10.8644146,0.0195121951 9.99029268,0.0195121951 C8.9912439,0.0195121951 8.11709756,0.144414634 7.24295122,0.394121951 C7.3677561,1.39317073 6.86834146,2.51702439 5.86929268,3.14146341 C4.8702439,3.76590244 3.62146341,3.64097561 2.74734146,2.8917561 C1.49856098,4.1405122 0.499512195,5.76390244 0,7.51217073 C0.99904878,7.88680488 1.62339024,8.88585366 1.62339024,10.0098049 C1.62339024,11.1336585 0.99904878,12.1327073 0,12.5073171 C0.499512195,14.2556098 1.49856098,15.8789756 2.74734146,17.1278293 C3.62146341,16.5034146 4.8702439,16.3785122 5.86929268,16.8780244 C6.86834146,17.5024634 7.3677561,18.5015122 7.24295122,19.6253659 C8.11709756,19.8750732 9.11614634,19.9999756 9.99029268,19.9999756 C10.9892439,19.9999756 11.8633659,19.8750732 12.7375122,19.6253659 C12.6127073,18.6263171 13.1122439,17.5024634 14.1111951,16.8780244 C15.1102439,16.2537073 16.359,16.3785122 17.2331463,17.1278293 C18.482,15.8789756 19.4809512,14.2556098 19.9804634,12.5073171 C18.9814146,12.1327073 18.3570976,11.1336585 18.3570976,10.0098049 Z M9.99029268,14.1307073 C7.61756098,14.1307073 5.74439024,12.2576098 5.74439024,10.0098049 C5.74439024,7.76197561 7.61756098,5.88880488 9.99029268,5.88880488 C12.3629024,5.88880488 14.2360976,7.76197561 14.2360976,10.0098049 C14.2360976,12.2576098 12.3629024,14.1307073 9.99029268,14.1307073 Z M9.99029268,12.5073171 C11.369561,12.5073171 12.4878049,11.3890732 12.4878049,10.0098049 C12.4878049,8.63041463 11.369561,7.51217073 9.99029268,7.51217073 C8.61090244,7.51217073 7.49265854,8.63041463 7.49265854,10.0098049 C7.49265854,11.3890732 8.61090244,12.5073171 9.99029268,12.5073171 Z" id="Fill-1" fill="#4C8AFF" mask="url(#mask-2)"></path>
            </g>
        </g>
    </g>
</svg>